<?xml version="1.0" standalone="no"?>
<!DOCTYPE svg PUBLIC "-//W3C//DTD SVG 20010904//EN"
 "http://www.w3.org/TR/2001/REC-SVG-20010904/DTD/svg10.dtd">
<svg version="1.0" xmlns="http://www.w3.org/2000/svg"
 width="736.000000pt" height="736.000000pt" viewBox="0 0 736.000000 736.000000"
 preserveAspectRatio="xMidYMid meet">

<g transform="translate(0.000000,736.000000) scale(0.100000,-0.100000)"
fill="#000000" stroke="none">
<path d="M5248 5226 c-56 -21 -61 -24 -425 -328 -186 -155 -394 -329 -463
-386 -69 -58 -172 -144 -230 -192 -270 -226 -436 -362 -447 -367 -6 -2 -305
234 -665 526 -359 292 -673 541 -698 554 -62 30 -168 30 -226 0 -66 -35 -101
-70 -130 -129 -52 -106 -28 -239 58 -320 18 -17 166 -139 328 -270 163 -132
429 -347 592 -479 163 -132 297 -244 297 -250 0 -5 -19 -25 -42 -43 -23 -19
-116 -96 -207 -172 -91 -76 -388 -323 -660 -549 -306 -254 -507 -429 -527
-457 -55 -77 -66 -151 -36 -243 47 -146 224 -227 363 -164 27 12 346 271 798
647 528 440 757 625 765 618 36 -27 880 -713 926 -751 155 -130 389 -313 419
-327 54 -25 141 -29 202 -9 150 50 228 229 160 370 -32 66 -52 84 -505 451
-671 542 -775 628 -772 637 1 5 322 275 712 600 629 525 713 598 738 645 97
179 -19 387 -221 399 -42 2 -81 -2 -104 -11z"/>
</g>
</svg>
